<?xml version="1.0" encoding="UTF-8" standalone="no"?>
<!DOCTYPE svg PUBLIC "-//W3C//DTD SVG 1.1//EN" "http://www.w3.org/Graphics/SVG/1.1/DTD/svg11.dtd">
<svg width="100%" height="100%" viewBox="0 0 1024 1024" version="1.1" xmlns="http://www.w3.org/2000/svg" xmlns:xlink="http://www.w3.org/1999/xlink" xml:space="preserve" xmlns:serif="http://www.serif.com/" style="fill-rule:evenodd;clip-rule:evenodd;stroke-linejoin:round;stroke-miterlimit:2;">
    <g id="Main-Logo" serif:id="Main Logo">
        <g>
            <g transform="matrix(45.584421,0,0,45.584421,-17935.033879,-17203.001441)">
                <path d="M406.391,397.344L395.674,397.344C395.284,397.344 394.91,397.189 394.634,396.914C394.359,396.638 394.204,396.264 394.204,395.874L394.204,395.634C394.204,395.344 394.294,395.061 394.461,394.824C395.963,392.696 403.544,381.958 403.544,381.958L396.096,381.958C395.706,381.958 395.332,381.803 395.056,381.527C394.781,381.251 394.626,380.878 394.626,380.488L394.626,379.895L406.157,379.895L405.354,395.282L396.712,395.282L406.391,395.282L406.391,397.344Z" style="fill-rule:nonzero;"/>
            </g>
            <g transform="matrix(45.584421,0,0,45.584421,-17535.639172,-17203.001441)">
                <path d="M406.391,397.344L394.204,397.344L394.204,395.188L394.851,381.942L394.626,379.895L404.687,379.895C405.077,379.895 405.451,380.05 405.727,380.326C406.002,380.601 406.157,380.975 406.157,381.365L406.157,381.545C406.157,381.836 406.066,382.12 405.897,382.358C404.379,384.495 396.712,395.282 396.712,395.282L404.922,395.282C405.733,395.282 406.391,395.94 406.391,396.752L406.391,397.344Z" style="fill-rule:nonzero;"/>
            </g>
        </g>
        <g>
            <g transform="matrix(0.995796,0,0,1.001505,1.273024,-1.203775)">
                <path d="M405.014,736.895L405.014,799.698L353.002,799.698C325.271,799.698 302.791,777.346 302.791,749.773L302.791,736.895L405.014,736.895Z" style="fill:white;"/>
            </g>
            <g transform="matrix(1.244695,0.76892,-0.76892,1.244695,9.815429,-348.818302)">
                <rect x="560.344" y="114.294" width="81.803" height="411.744" style="fill:white;"/>
            </g>
            <g transform="matrix(1.002939,0,0,0.987245,-2.119894,2.860999)">
                <path d="M671.356,224.302C698.889,224.302 721.209,246.977 721.209,274.948L721.209,288.037L619.671,288.037L619.671,224.302L671.356,224.302Z" style="fill:white;"/>
            </g>
        </g>
    </g>
</svg>
